<svg width="36" height="36" fill="none" xmlns="http://www.w3.org/2000/svg"><path d="M35.134 16.608C34.695 9.35 29.97 3.27 23.494.921c-.132-.05-.248.113-.157.222 2.735 3.315 4.557 8.93 4.735 15.482 0 .077.063.137.14.137h6.777a.142.142 0 0 0 .142-.15l.003-.004ZM11.36 1.03C5.03 3.45.438 9.456.004 16.61c-.005.082.06.15.143.15h6.581a.14.14 0 0 0 .14-.137C7.044 10.14 8.833 4.577 11.521 1.25c.09-.11-.027-.272-.159-.22h-.002ZM16.435.001C12.358 1.047 9.047 8.138 8.79 16.613c0 .08.063.148.143.148h7.539a.14.14 0 0 0 .14-.14V.144a.143.143 0 0 0-.176-.14V.001ZM16.608 35.227V18.82a.14.14 0 0 0-.14-.14H8.932a.143.143 0 0 0-.143.148c.274 8.441 3.578 15.5 7.644 16.543a.143.143 0 0 0 .175-.14v-.003ZM0 18.83c.437 7.182 5.065 13.21 11.435 15.61.135.05.25-.11.16-.22-2.722-3.305-4.541-8.886-4.73-15.404a.138.138 0 0 0-.14-.137H.143a.142.142 0 0 0-.143.15ZM18.71 35.305c3.972-1.22 7.171-8.178 7.443-16.48a.146.146 0 0 0-.143-.148h-7.339a.14.14 0 0 0-.14.14v16.348c0 .094.09.165.181.138l-.002.002ZM18.526.202v16.416c0 .077.063.14.14.14h7.342c.08 0 .145-.065.142-.148-.255-8.332-3.46-15.325-7.445-16.548a.142.142 0 0 0-.182.137l.003.003ZM23.405 34.55c6.524-2.323 11.29-8.427 11.732-15.722a.142.142 0 0 0-.143-.151h-6.78a.14.14 0 0 0-.14.137c-.191 6.593-2.049 12.225-4.822 15.514-.09.11.02.272.154.223Z" fill="#18306C"/></svg>