<svg width="1880" height="834" fill="none" xmlns="http://www.w3.org/2000/svg"><g opacity=".1" clip-path="url('#clip0_2_2024')" stroke="#fff" stroke-width="1.076"><path d="m940.6-1348.68.001 3398.97M-2298.03 391.221h6476.18M1357.82 388.832c0 234.99-46.65 447.707-122.04 601.657-75.4 153.981-179.47 249.011-294.253 249.011-114.785 0-218.854-95.03-294.259-249.011-75.387-153.95-122.031-366.667-122.031-601.657 0-234.99 46.644-447.707 122.031-601.656 75.405-153.985 179.474-249.011 294.259-249.011 114.783 0 218.853 95.026 294.253 249.011 75.39 153.95 122.04 366.666 122.04 601.656Z"/><path d="M1799.5 388.832c0 489.21-386.1 885.768-862.364 885.768-476.259 0-862.368-396.558-862.368-885.768 0-489.21 386.109-885.769 862.368-885.769 476.264 0 862.364 396.559 862.364 885.769Z"/></g><defs><clipPath id="clip0_2_2024"><path fill="#fff" transform="translate(-503 -139)" d="M0 0h2886.12v1113H0z"/></clipPath></defs></svg>