<svg width="375" height="1143" fill="none" xmlns="http://www.w3.org/2000/svg"><g opacity=".1" stroke="#fff"><path d="M-1703 572.49h4173.02M652.54 571.104c0 151.401-30.052 288.444-78.617 387.618-48.58 99.208-115.599 160.368-189.471 160.368s-140.891-61.16-189.472-160.368c-48.565-99.174-78.617-236.217-78.617-387.618 0-151.401 30.052-288.444 78.617-387.618 48.581-99.207 115.6-160.368 189.472-160.368 73.872 0 140.891 61.16 189.471 160.368 48.565 99.174 78.617 236.217 78.617 387.618Z"/><path d="M937.148 571.104c0 315.149-248.729 570.606-555.525 570.606-306.796 0-555.525-255.457-555.525-570.606S74.828.5 381.623.5c306.796 0 555.525 255.455 555.525 570.604Z"/></g></svg>