<svg width="137" height="25" fill="#18306c" xmlns="http://www.w3.org/2000/svg"><path d="M108.121 11.989c-.301-4.973-3.537-9.137-7.974-10.746-.09-.034-.17.077-.107.152 1.873 2.27 3.121 6.117 3.243 10.605 0 .053.044.094.096.094h4.642a.098.098 0 0 0 .098-.103l.002-.002ZM91.835 1.317C87.5 2.974 84.354 7.09 84.057 11.989a.097.097 0 0 0 .098.104h4.508a.096.096 0 0 0 .096-.094c.12-4.441 1.345-8.252 3.187-10.532.062-.075-.019-.186-.109-.15h-.002ZM95.312.613c-2.793.716-5.061 5.574-5.238 11.38a.1.1 0 0 0 .098.1h5.164a.096.096 0 0 0 .096-.095V.71a.098.098 0 0 0-.12-.096V.613ZM95.43 24.742v-11.24a.096.096 0 0 0-.096-.095h-5.162c-.054 0-.1.045-.098.101.188 5.783 2.45 10.618 5.236 11.332.06.015.12-.032.12-.096v-.002ZM84.055 13.51c.299 4.92 3.47 9.049 7.833 10.693.092.034.17-.075.109-.15-1.865-2.265-3.11-6.087-3.24-10.552a.095.095 0 0 0-.096-.094h-4.508a.097.097 0 0 0-.098.103ZM96.87 24.796c2.721-.836 4.913-5.602 5.099-11.289a.1.1 0 0 0-.098-.101h-5.027a.096.096 0 0 0-.096.096V24.7c0 .064.062.113.124.094l-.002.002ZM96.746.75v11.246c0 .053.043.096.096.096h5.029a.099.099 0 0 0 .098-.102c-.175-5.707-2.37-10.497-5.1-11.336a.098.098 0 0 0-.125.094l.002.002ZM100.087 24.28c4.469-1.593 7.733-5.774 8.036-10.77a.098.098 0 0 0-.098-.104h-4.644a.096.096 0 0 0-.096.094c-.131 4.516-1.403 8.374-3.303 10.627-.062.075.013.186.105.152ZM24.231 12.728c0-6.681-5.434-12.116-12.115-12.116C5.434.612 0 6.047 0 12.728s5.434 12.115 12.116 12.115c6.68 0 12.115-5.434 12.115-12.115Zm-12.115 7.42c-4.091 0-7.42-3.33-7.42-7.42 0-4.091 3.329-7.42 7.42-7.42 4.09 0 7.42 3.329 7.42 7.42 0 4.09-3.33 7.42-7.42 7.42ZM36.342 24.533h4.67V5.506h8.382V1.234H27.96v4.272h8.383v19.027ZM60.012.923h-4.715v23.61h4.715v-9.945h12.625v9.945h4.716V.923h-4.716v9.566H60.012V.923ZM132.58 17.83 119.535.923h-4.592v23.61h4.422V7.661l13.044 16.872H137V.923h-4.42V17.83Z"/></svg>