<svg width="375" height="635" fill="none" xmlns="http://www.w3.org/2000/svg"><g clip-path="url('#clip0_2_2402')"><path fill="#fff" d="M0 0h375v635H0z"/><g clip-path="url('#clip1_2_2402')"><path fill="#18306C" d="M0 0h375v657H0z"/><g opacity=".1" stroke="#fff" stroke-miterlimit="10"><path d="M395.212 774.838c116.24 0 210.472-206.297 210.472-460.777s-94.232-460.776-210.472-460.776c-116.24 0-210.472 206.297-210.472 460.776 0 254.48 94.232 460.777 210.472 460.777Z"/><path d="M395.212 774.838c247.865 0 448.8-206.297 448.8-460.777s-200.935-460.776-448.8-460.776-448.8 206.297-448.8 460.776c0 254.48 200.935 460.777 448.8 460.777ZM-53.588 314.061h897.6"/></g></g></g><defs><clipPath id="clip0_2_2402"><path fill="#fff" d="M0 0h375v635H0z"/></clipPath><clipPath id="clip1_2_2402"><path fill="#fff" d="M0 0h375v635H0z"/></clipPath></defs></svg>