<svg width="38" height="39" viewBox="0 0 38 39" fill="none" xmlns="http://www.w3.org/2000/svg">
<path d="M37.9996 17.9839C37.5249 10.1335 32.4159 3.55882 25.4111 1.01915C25.2686 0.965749 25.144 1.1408 25.2419 1.25947C28.1999 4.84349 30.17 10.9167 30.3628 18.0017C30.3628 18.0848 30.4311 18.15 30.5141 18.15H37.8424C37.9314 18.15 38.0026 18.0759 37.9966 17.9869L37.9996 17.9839Z" fill="#18306C"/>
<path d="M12.2862 1.13491C5.44157 3.75172 0.474975 10.2492 0.00620516 17.9839C0.000271361 18.073 0.0714771 18.1471 0.160484 18.1471H7.27808C7.36115 18.1471 7.42642 18.0819 7.42939 17.9988C7.61927 10.988 9.55369 4.97112 12.4613 1.37226C12.5592 1.25359 12.4316 1.07854 12.2892 1.13491H12.2862Z" fill="#18306C"/>
<path d="M17.7746 0.0238236C13.3658 1.15421 9.78475 8.82365 9.50586 17.9884C9.50586 18.0745 9.5741 18.1486 9.66014 18.1486H17.8132C17.8963 18.1486 17.9645 18.0804 17.9645 17.9973V0.178103C17.9645 0.0801949 17.8725 0.00305481 17.7746 0.02679V0.0238236Z" fill="#18306C"/>
<path d="M17.9616 38.119V20.374C17.9616 20.2909 17.8934 20.2227 17.8103 20.2227H9.66023C9.57419 20.2227 9.50298 20.2939 9.50595 20.3829C9.80264 29.512 13.3748 37.1459 17.7717 38.2733C17.8667 38.297 17.9616 38.2228 17.9616 38.122V38.119Z" fill="#18306C"/>
<path d="M0.000345787 20.3858C0.472083 28.1532 5.47725 34.6715 12.3664 37.2675C12.5118 37.3209 12.6364 37.1488 12.5385 37.0302C9.5953 33.455 7.62825 27.4204 7.42353 20.371C7.42353 20.2879 7.35529 20.2227 7.27222 20.2227H0.154625C0.0656177 20.2227 -0.00558801 20.2968 0.000345787 20.3858Z" fill="#18306C"/>
<path d="M20.23 38.2031C24.526 36.8828 27.9854 29.3588 28.2792 20.3809C28.2792 20.2949 28.2109 20.2207 28.1249 20.2207H20.1884C20.1053 20.2207 20.0371 20.2889 20.0371 20.372V38.0518C20.0371 38.1527 20.135 38.2298 20.2329 38.2001L20.23 38.2031Z" fill="#18306C"/>
<path d="M20.0342 0.239768V17.9937C20.0342 18.0768 20.1025 18.145 20.1855 18.145H28.125C28.211 18.145 28.2822 18.0738 28.2792 17.9848C28.0033 8.97432 24.538 1.41169 20.2271 0.0884551C20.1292 0.0587861 20.0312 0.135926 20.0312 0.2368L20.0342 0.239768Z" fill="#18306C"/>
<path d="M25.3055 37.3872C32.3608 34.8742 37.5143 28.2729 37.9919 20.3839C37.9979 20.2949 37.9267 20.2207 37.8377 20.2207H30.5064C30.4234 20.2207 30.3581 20.286 30.3551 20.369C30.1474 27.4985 28.1389 33.5896 25.1393 37.1469C25.0414 37.2656 25.1601 37.4406 25.3055 37.3872Z" fill="#18306C"/>
</svg>
