<svg width="42" height="35" viewBox="0 0 42 35" fill="none" xmlns="http://www.w3.org/2000/svg">
<path d="M0.779297 11.5789V23.4184C0.781131 24.3702 1.55134 25.1405 2.50314 25.1423H8.19544V23.6752C8.19361 22.7858 8.19728 10.3906 8.19544 9.85498H2.50314C1.55138 9.85681 0.781128 10.6271 0.779297 11.5789Z" fill="white"/>
<path d="M25.6828 0.0911502C25.4517 -0.0353857 25.1693 -0.0298835 24.9419 0.105821L9.66211 9.28957V23.9971V25.7062L24.9419 34.89C25.0556 34.9615 25.1876 35 25.3233 35C25.7268 34.9945 26.0514 34.6699 26.0569 34.2665V0.728562C26.0551 0.464486 25.912 0.222428 25.6828 0.0903662L25.6828 0.0911502Z" fill="white"/>
<path d="M41.1242 13.4712C40.9298 13.4712 40.7427 13.5482 40.6052 13.6858C40.4676 13.8233 40.3906 14.0103 40.3906 14.2048V20.7919C40.3906 21.1971 40.7189 21.5254 41.1242 21.5254C41.5295 21.5254 41.8577 21.1971 41.8577 20.7919V14.2048C41.8577 14.0104 41.7807 13.8233 41.6432 13.6858C41.5056 13.5482 41.3186 13.4712 41.1242 13.4712Z" fill="white"/>
<path d="M37.2824 11.4136C37.088 11.4136 36.9009 11.4906 36.7634 11.6281C36.6258 11.7657 36.5488 11.9527 36.5488 12.1471V22.8496C36.5488 23.2549 36.8771 23.5832 37.2824 23.5832C37.6877 23.5832 38.0159 23.2549 38.0159 22.8496V12.1471C38.0159 11.9527 37.9389 11.7657 37.8014 11.6281C37.6638 11.4906 37.4768 11.4136 37.2824 11.4136Z" fill="white"/>
<path d="M33.4386 9.76611C33.2443 9.76611 33.059 9.84313 32.9215 9.98068C32.7821 10.1182 32.7051 10.3053 32.7051 10.4997V24.4955C32.7051 24.9008 33.0333 25.229 33.4386 25.229C33.8439 25.229 34.1722 24.9008 34.1722 24.4955V10.4997C34.1722 10.3053 34.0951 10.1182 33.9576 9.98068C33.8201 9.84312 33.633 9.76611 33.4386 9.76611Z" fill="white"/>
<path d="M29.5968 13.4712C29.4025 13.4712 29.2172 13.5482 29.0797 13.6858C28.9421 13.8233 28.8633 14.0103 28.8633 14.2048V20.7919C28.8633 21.1971 29.1934 21.5254 29.5968 21.5254C30.0021 21.5254 30.3304 21.1971 30.3304 20.7919V14.2048C30.3304 14.0104 30.2533 13.8233 30.1158 13.6858C29.9783 13.5482 29.7931 13.4712 29.5968 13.4712Z" fill="white"/>
</svg>
