<svg width="17" height="17" viewBox="0 0 17 17" fill="none" xmlns="http://www.w3.org/2000/svg">
<path d="M1.58398 7.49048C0.958756 7.49048 0.451909 7.99733 0.451909 8.62256C0.451909 9.24779 0.958756 9.75463 1.58398 9.75463V7.49048ZM16.2598 9.42306C16.7019 8.98095 16.7019 8.26416 16.2598 7.82206L9.0553 0.617576C8.6132 0.175472 7.89641 0.175472 7.4543 0.617576C7.0122 1.05968 7.0122 1.77647 7.4543 2.21857L13.8583 8.62256L7.4543 15.0265C7.0122 15.4686 7.0122 16.1854 7.4543 16.6275C7.89641 17.0696 8.6132 17.0696 9.0553 16.6275L16.2598 9.42306ZM1.58398 9.75463H15.4593V7.49048L1.58398 7.49048V9.75463Z" fill="#F2683C"/>
</svg>
