<svg width="54" height="55" viewBox="0 0 54 55" fill="none" xmlns="http://www.w3.org/2000/svg">
<path d="M53.4721 25.8774C52.8083 14.8994 45.6639 5.70541 35.8683 2.15395C35.6692 2.07927 35.4949 2.32406 35.6318 2.49001C39.7683 7.50189 42.5232 15.9947 42.7928 25.9023C42.7928 26.0185 42.8883 26.1098 43.0044 26.1098H53.2522C53.3767 26.1098 53.4763 26.006 53.468 25.8816L53.4721 25.8774Z" fill="white"/>
<path d="M17.5136 2.31601C7.9421 5.97534 0.996831 15.0615 0.341304 25.8777C0.333006 26.0021 0.43258 26.1059 0.557047 26.1059H10.5103C10.6264 26.1059 10.7177 26.0146 10.7219 25.8984C10.9874 16.0945 13.6925 7.68055 17.7584 2.64792C17.8953 2.48197 17.7169 2.23718 17.5178 2.31601H17.5136Z" fill="white"/>
<path d="M25.189 0.761915C19.0237 2.34265 14.016 13.0676 13.626 25.8836C13.626 26.0039 13.7214 26.1076 13.8417 26.1076H25.2429C25.3591 26.1076 25.4545 26.0122 25.4545 25.896V0.977659C25.4545 0.840745 25.3259 0.732872 25.189 0.766064V0.761915Z" fill="white"/>
<path d="M25.4505 54.0343V29.2197C25.4505 29.1035 25.3551 29.0081 25.2389 29.0081H13.8418C13.7215 29.0081 13.622 29.1076 13.6261 29.2321C14.041 41.9983 19.0363 52.6734 25.185 54.25C25.3177 54.2832 25.4505 54.1795 25.4505 54.0384V54.0343Z" fill="white"/>
<path d="M0.333491 29.2358C0.993168 40.0976 7.99238 49.2128 17.6261 52.843C17.8294 52.9177 18.0037 52.6771 17.8668 52.5111C13.7511 47.5117 11.0003 39.0728 10.7141 29.215C10.7141 29.0988 10.6186 29.0076 10.5025 29.0076H0.549235C0.424768 29.0076 0.325194 29.1113 0.333491 29.2358Z" fill="white"/>
<path d="M28.6222 54.1514C34.6298 52.3052 39.4675 41.7835 39.8782 29.2289C39.8782 29.1086 39.7828 29.0049 39.6625 29.0049H28.5641C28.448 29.0049 28.3525 29.1003 28.3525 29.2165V53.9398C28.3525 54.0809 28.4895 54.1888 28.6264 54.1473L28.6222 54.1514Z" fill="white"/>
<path d="M28.3489 1.06408V25.8911C28.3489 26.0073 28.4443 26.1027 28.5605 26.1027H39.6629C39.7833 26.1027 39.8828 26.0032 39.8787 25.8787C39.4928 13.2785 34.6469 2.7029 28.6186 0.852489C28.4816 0.811 28.3447 0.918872 28.3447 1.05993L28.3489 1.06408Z" fill="white"/>
<path d="M35.7209 53.0105C45.587 49.4963 52.7936 40.265 53.4616 29.2331C53.4699 29.1086 53.3703 29.0049 53.2459 29.0049H42.9939C42.8777 29.0049 42.7865 29.0962 42.7823 29.2123C42.4919 39.1822 39.6831 47.6999 35.4885 52.6744C35.3516 52.8404 35.5176 53.0851 35.7209 53.0105Z" fill="white"/>
</svg>
