<svg width="375" height="1143" viewBox="0 0 375 1143" fill="none" xmlns="http://www.w3.org/2000/svg">
<g opacity="0.1">
<line x1="-1703" y1="572.49" x2="2470.02" y2="572.49" stroke="white"/>
<path d="M652.54 571.104C652.54 722.505 622.488 859.548 573.923 958.722C525.343 1057.93 458.324 1119.09 384.452 1119.09C310.58 1119.09 243.561 1057.93 194.98 958.722C146.415 859.548 116.363 722.505 116.363 571.104C116.363 419.703 146.415 282.66 194.98 183.486C243.561 84.2786 310.58 23.1182 384.452 23.1182C458.324 23.1182 525.343 84.2786 573.923 183.486C622.488 282.66 652.54 419.703 652.54 571.104Z" stroke="white"/>
<path d="M937.148 571.104C937.148 886.253 688.419 1141.71 381.623 1141.71C74.8273 1141.71 -173.902 886.253 -173.902 571.104C-173.902 255.955 74.8273 0.5 381.623 0.5C688.419 0.5 937.148 255.955 937.148 571.104Z" stroke="white"/>
</g>
</svg>
